<?xml version="1.0" standalone="no"?>
<!DOCTYPE svg PUBLIC "-//W3C//DTD SVG 20010904//EN"
 "http://www.w3.org/TR/2001/REC-SVG-20010904/DTD/svg10.dtd">
<svg version="1.0" xmlns="http://www.w3.org/2000/svg"
 width="1280.000000pt" height="1087.000000pt" viewBox="0 0 1280.000000 1087.000000"
 preserveAspectRatio="xMidYMid meet">
<g transform="translate(0.000000,1087.000000) scale(0.100000,-0.100000)"
fill="#000000" stroke="none">
<path d="M6026 10859 c-1401 -48 -2781 -414 -3840 -1019 -1166 -666 -1924
-1588 -2125 -2585 -54 -267 -71 -621 -43 -870 127 -1107 889 -2113 2147 -2837
1334 -768 3160 -1146 4870 -1008 239 19 711 62 831 76 l50 6 87 -110 c283
-360 847 -912 1387 -1358 677 -559 1274 -938 1701 -1078 211 -70 264 -76 647
-76 182 0 332 2 332 5 0 3 -130 186 -288 408 -502 702 -750 1099 -957 1532
-272 567 -361 976 -303 1393 l11 84 61 41 c376 254 814 642 1150 1017 533 595
882 1211 1005 1775 34 157 45 275 44 465 -3 838 -391 1651 -1116 2339 -1140
1079 -2929 1731 -4947 1801 -313 11 -367 11 -704 -1z m864 -679 c1051 -58
2022 -283 2875 -665 613 -275 1113 -610 1520 -1019 265 -266 444 -509 591
-801 204 -408 288 -867 224 -1238 -124 -725 -849 -1685 -1790 -2368 -64 -46
-177 -124 -251 -174 l-136 -89 -28 -156 c-50 -273 -55 -312 -61 -492 -16 -408
69 -801 282 -1303 66 -157 222 -471 302 -610 22 -38 38 -72 37 -73 -4 -5 -235
164 -380 277 -570 443 -1208 1047 -1530 1446 -78 96 -110 147 -162 255 -36 74
-69 144 -73 156 l-8 20 -279 -32 c-534 -63 -1126 -114 -1498 -129 -435 -18
-1200 43 -1710 136 -738 134 -1366 336 -1970 634 -528 260 -904 514 -1252 848
-274 261 -471 511 -626 792 -267 486 -353 1034 -241 1545 82 371 266 742 541
1085 111 139 374 404 523 527 426 351 931 644 1495 870 115 46 403 151 455
166 19 5 103 30 185 55 576 176 1290 298 1955 336 214 12 798 12 1010 1z"/>
</g>
</svg>
